<mxfile host="app.diagrams.net" modified="2022-11-09T22:58:29.606Z" agent="5.0 (Macintosh; Intel Mac OS X 10_15_7) AppleWebKit/537.36 (KHTML, like Gecko) Chrome/102.0.0.0 Safari/537.36" etag="FO-nvsj9BTkEsex_PYYE" version="20.4.0" type="github">
  <diagram id="be_BGbflEGEBLREiLtyJ" name="Page-1">
    <mxGraphModel dx="403" dy="1361" grid="1" gridSize="10" guides="1" tooltips="1" connect="1" arrows="1" fold="1" page="1" pageScale="1" pageWidth="850" pageHeight="1100" math="0" shadow="0">
      <root>
        <mxCell id="0" />
        <mxCell id="1" parent="0" />
        <mxCell id="tYCs_D2PuRrYNjhiUNpw-47" value="Map" style="swimlane;fontStyle=0;childLayout=stackLayout;horizontal=1;startSize=30;horizontalStack=0;resizeParent=1;resizeParentMax=0;resizeLast=0;collapsible=1;marginBottom=0;" vertex="1" parent="1">
          <mxGeometry x="570" y="-870" width="140" height="120" as="geometry" />
        </mxCell>
        <mxCell id="tYCs_D2PuRrYNjhiUNpw-48" value="KML" style="text;strokeColor=none;fillColor=none;align=left;verticalAlign=middle;spacingLeft=4;spacingRight=4;overflow=hidden;points=[[0,0.5],[1,0.5]];portConstraint=eastwest;rotatable=0;" vertex="1" parent="tYCs_D2PuRrYNjhiUNpw-47">
          <mxGeometry y="30" width="140" height="30" as="geometry" />
        </mxCell>
        <mxCell id="tYCs_D2PuRrYNjhiUNpw-49" value="KMZ" style="text;strokeColor=none;fillColor=none;align=left;verticalAlign=middle;spacingLeft=4;spacingRight=4;overflow=hidden;points=[[0,0.5],[1,0.5]];portConstraint=eastwest;rotatable=0;" vertex="1" parent="tYCs_D2PuRrYNjhiUNpw-47">
          <mxGeometry y="60" width="140" height="30" as="geometry" />
        </mxCell>
        <mxCell id="tYCs_D2PuRrYNjhiUNpw-50" value="Polygon" style="text;strokeColor=none;fillColor=none;align=left;verticalAlign=middle;spacingLeft=4;spacingRight=4;overflow=hidden;points=[[0,0.5],[1,0.5]];portConstraint=eastwest;rotatable=0;" vertex="1" parent="tYCs_D2PuRrYNjhiUNpw-47">
          <mxGeometry y="90" width="140" height="30" as="geometry" />
        </mxCell>
        <mxCell id="tYCs_D2PuRrYNjhiUNpw-76" style="edgeStyle=orthogonalEdgeStyle;rounded=0;orthogonalLoop=1;jettySize=auto;html=1;exitX=0;exitY=0.5;exitDx=0;exitDy=0;entryX=1;entryY=0.5;entryDx=0;entryDy=0;" edge="1" parent="1" source="tYCs_D2PuRrYNjhiUNpw-52" target="tYCs_D2PuRrYNjhiUNpw-67">
          <mxGeometry relative="1" as="geometry" />
        </mxCell>
        <mxCell id="tYCs_D2PuRrYNjhiUNpw-52" value="Create Report" style="swimlane;fontStyle=0;childLayout=stackLayout;horizontal=1;startSize=30;horizontalStack=0;resizeParent=1;resizeParentMax=0;resizeLast=0;collapsible=1;marginBottom=0;" vertex="1" parent="1">
          <mxGeometry x="570" y="-720" width="140" height="120" as="geometry" />
        </mxCell>
        <mxCell id="tYCs_D2PuRrYNjhiUNpw-53" value="Title, texts" style="text;strokeColor=none;fillColor=none;align=left;verticalAlign=middle;spacingLeft=4;spacingRight=4;overflow=hidden;points=[[0,0.5],[1,0.5]];portConstraint=eastwest;rotatable=0;" vertex="1" parent="tYCs_D2PuRrYNjhiUNpw-52">
          <mxGeometry y="30" width="140" height="30" as="geometry" />
        </mxCell>
        <mxCell id="tYCs_D2PuRrYNjhiUNpw-54" value="Maps, forecasts" style="text;strokeColor=none;fillColor=none;align=left;verticalAlign=middle;spacingLeft=4;spacingRight=4;overflow=hidden;points=[[0,0.5],[1,0.5]];portConstraint=eastwest;rotatable=0;" vertex="1" parent="tYCs_D2PuRrYNjhiUNpw-52">
          <mxGeometry y="60" width="140" height="30" as="geometry" />
        </mxCell>
        <mxCell id="tYCs_D2PuRrYNjhiUNpw-55" value="Table, sum, variables" style="text;strokeColor=none;fillColor=none;align=left;verticalAlign=middle;spacingLeft=4;spacingRight=4;overflow=hidden;points=[[0,0.5],[1,0.5]];portConstraint=eastwest;rotatable=0;" vertex="1" parent="tYCs_D2PuRrYNjhiUNpw-52">
          <mxGeometry y="90" width="140" height="30" as="geometry" />
        </mxCell>
        <mxCell id="tYCs_D2PuRrYNjhiUNpw-56" value="Register Partner" style="swimlane;fontStyle=0;childLayout=stackLayout;horizontal=1;startSize=30;horizontalStack=0;resizeParent=1;resizeParentMax=0;resizeLast=0;collapsible=1;marginBottom=0;" vertex="1" parent="1">
          <mxGeometry x="570" y="-570" width="140" height="120" as="geometry">
            <mxRectangle x="600" y="-350" width="130" height="30" as="alternateBounds" />
          </mxGeometry>
        </mxCell>
        <mxCell id="tYCs_D2PuRrYNjhiUNpw-57" value="Name" style="text;strokeColor=none;fillColor=none;align=left;verticalAlign=middle;spacingLeft=4;spacingRight=4;overflow=hidden;points=[[0,0.5],[1,0.5]];portConstraint=eastwest;rotatable=0;" vertex="1" parent="tYCs_D2PuRrYNjhiUNpw-56">
          <mxGeometry y="30" width="140" height="30" as="geometry" />
        </mxCell>
        <mxCell id="tYCs_D2PuRrYNjhiUNpw-58" value="Logo" style="text;strokeColor=none;fillColor=none;align=left;verticalAlign=middle;spacingLeft=4;spacingRight=4;overflow=hidden;points=[[0,0.5],[1,0.5]];portConstraint=eastwest;rotatable=0;" vertex="1" parent="tYCs_D2PuRrYNjhiUNpw-56">
          <mxGeometry y="60" width="140" height="30" as="geometry" />
        </mxCell>
        <mxCell id="tYCs_D2PuRrYNjhiUNpw-59" value="Text, responsible" style="text;strokeColor=none;fillColor=none;align=left;verticalAlign=middle;spacingLeft=4;spacingRight=4;overflow=hidden;points=[[0,0.5],[1,0.5]];portConstraint=eastwest;rotatable=0;" vertex="1" parent="tYCs_D2PuRrYNjhiUNpw-56">
          <mxGeometry y="90" width="140" height="30" as="geometry" />
        </mxCell>
        <mxCell id="tYCs_D2PuRrYNjhiUNpw-70" style="edgeStyle=orthogonalEdgeStyle;rounded=0;orthogonalLoop=1;jettySize=auto;html=1;exitX=0.5;exitY=1;exitDx=0;exitDy=0;entryX=0.5;entryY=0;entryDx=0;entryDy=0;" edge="1" parent="1" source="tYCs_D2PuRrYNjhiUNpw-60" target="tYCs_D2PuRrYNjhiUNpw-66">
          <mxGeometry relative="1" as="geometry" />
        </mxCell>
        <mxCell id="tYCs_D2PuRrYNjhiUNpw-60" value="FC Account" style="shape=parallelogram;html=1;strokeWidth=2;perimeter=parallelogramPerimeter;whiteSpace=wrap;rounded=1;arcSize=12;size=0.23;fillColor=#f8cecc;strokeColor=#b85450;" vertex="1" parent="1">
          <mxGeometry x="300" y="-970" width="145" height="50" as="geometry" />
        </mxCell>
        <mxCell id="tYCs_D2PuRrYNjhiUNpw-61" value="open FC Account" style="swimlane;fontStyle=0;childLayout=stackLayout;horizontal=1;startSize=30;horizontalStack=0;resizeParent=1;resizeParentMax=0;resizeLast=0;collapsible=1;marginBottom=0;" vertex="1" parent="1">
          <mxGeometry x="570" y="-1020" width="140" height="120" as="geometry" />
        </mxCell>
        <mxCell id="tYCs_D2PuRrYNjhiUNpw-62" value="Stations" style="text;strokeColor=none;fillColor=none;align=left;verticalAlign=middle;spacingLeft=4;spacingRight=4;overflow=hidden;points=[[0,0.5],[1,0.5]];portConstraint=eastwest;rotatable=0;" vertex="1" parent="tYCs_D2PuRrYNjhiUNpw-61">
          <mxGeometry y="30" width="140" height="30" as="geometry" />
        </mxCell>
        <mxCell id="tYCs_D2PuRrYNjhiUNpw-63" value="Update Frequency" style="text;strokeColor=none;fillColor=none;align=left;verticalAlign=middle;spacingLeft=4;spacingRight=4;overflow=hidden;points=[[0,0.5],[1,0.5]];portConstraint=eastwest;rotatable=0;" vertex="1" parent="tYCs_D2PuRrYNjhiUNpw-61">
          <mxGeometry y="60" width="140" height="30" as="geometry" />
        </mxCell>
        <mxCell id="tYCs_D2PuRrYNjhiUNpw-64" value="Master Station" style="text;strokeColor=none;fillColor=none;align=left;verticalAlign=middle;spacingLeft=4;spacingRight=4;overflow=hidden;points=[[0,0.5],[1,0.5]];portConstraint=eastwest;rotatable=0;" vertex="1" parent="tYCs_D2PuRrYNjhiUNpw-61">
          <mxGeometry y="90" width="140" height="30" as="geometry" />
        </mxCell>
        <mxCell id="tYCs_D2PuRrYNjhiUNpw-71" style="edgeStyle=orthogonalEdgeStyle;rounded=0;orthogonalLoop=1;jettySize=auto;html=1;exitX=0.5;exitY=1;exitDx=0;exitDy=0;" edge="1" parent="1" source="tYCs_D2PuRrYNjhiUNpw-66" target="tYCs_D2PuRrYNjhiUNpw-67">
          <mxGeometry relative="1" as="geometry" />
        </mxCell>
        <mxCell id="tYCs_D2PuRrYNjhiUNpw-66" value="Upload Map" style="shape=parallelogram;html=1;strokeWidth=2;perimeter=parallelogramPerimeter;whiteSpace=wrap;rounded=1;arcSize=12;size=0.23;fillColor=#f8cecc;strokeColor=#b85450;" vertex="1" parent="1">
          <mxGeometry x="300" y="-820" width="145" height="50" as="geometry" />
        </mxCell>
        <mxCell id="tYCs_D2PuRrYNjhiUNpw-72" style="edgeStyle=orthogonalEdgeStyle;rounded=0;orthogonalLoop=1;jettySize=auto;html=1;exitX=0.5;exitY=1;exitDx=0;exitDy=0;entryX=0.5;entryY=0;entryDx=0;entryDy=0;" edge="1" parent="1" source="tYCs_D2PuRrYNjhiUNpw-67" target="tYCs_D2PuRrYNjhiUNpw-68">
          <mxGeometry relative="1" as="geometry" />
        </mxCell>
        <mxCell id="tYCs_D2PuRrYNjhiUNpw-67" value="Create Report &lt;br&gt;Version" style="shape=parallelogram;html=1;strokeWidth=2;perimeter=parallelogramPerimeter;whiteSpace=wrap;rounded=1;arcSize=12;size=0.23;fillColor=#dae8fc;strokeColor=#6c8ebf;" vertex="1" parent="1">
          <mxGeometry x="300" y="-685" width="145" height="50" as="geometry" />
        </mxCell>
        <mxCell id="tYCs_D2PuRrYNjhiUNpw-73" style="edgeStyle=orthogonalEdgeStyle;rounded=0;orthogonalLoop=1;jettySize=auto;html=1;exitX=0.5;exitY=1;exitDx=0;exitDy=0;" edge="1" parent="1" source="tYCs_D2PuRrYNjhiUNpw-68" target="tYCs_D2PuRrYNjhiUNpw-69">
          <mxGeometry relative="1" as="geometry" />
        </mxCell>
        <mxCell id="tYCs_D2PuRrYNjhiUNpw-68" value="Register Partner" style="shape=parallelogram;html=1;strokeWidth=2;perimeter=parallelogramPerimeter;whiteSpace=wrap;rounded=1;arcSize=12;size=0.23;fillColor=#d5e8d4;strokeColor=#82b366;" vertex="1" parent="1">
          <mxGeometry x="300" y="-521" width="145" height="50" as="geometry" />
        </mxCell>
        <mxCell id="tYCs_D2PuRrYNjhiUNpw-89" style="edgeStyle=orthogonalEdgeStyle;rounded=0;orthogonalLoop=1;jettySize=auto;html=1;exitX=0.5;exitY=1;exitDx=0;exitDy=0;entryX=0.5;entryY=0;entryDx=0;entryDy=0;" edge="1" parent="1" source="tYCs_D2PuRrYNjhiUNpw-69" target="tYCs_D2PuRrYNjhiUNpw-83">
          <mxGeometry relative="1" as="geometry" />
        </mxCell>
        <mxCell id="tYCs_D2PuRrYNjhiUNpw-69" value="Register Client" style="shape=parallelogram;html=1;strokeWidth=2;perimeter=parallelogramPerimeter;whiteSpace=wrap;rounded=1;arcSize=12;size=0.23;fillColor=#f5f5f5;strokeColor=#666666;fontColor=#333333;" vertex="1" parent="1">
          <mxGeometry x="300" y="-370" width="145" height="50" as="geometry" />
        </mxCell>
        <mxCell id="tYCs_D2PuRrYNjhiUNpw-74" style="edgeStyle=orthogonalEdgeStyle;rounded=0;orthogonalLoop=1;jettySize=auto;html=1;exitX=0;exitY=0.5;exitDx=0;exitDy=0;entryX=1;entryY=0.5;entryDx=0;entryDy=0;" edge="1" parent="1" source="tYCs_D2PuRrYNjhiUNpw-63" target="tYCs_D2PuRrYNjhiUNpw-60">
          <mxGeometry relative="1" as="geometry" />
        </mxCell>
        <mxCell id="tYCs_D2PuRrYNjhiUNpw-75" style="edgeStyle=orthogonalEdgeStyle;rounded=0;orthogonalLoop=1;jettySize=auto;html=1;exitX=0;exitY=0.5;exitDx=0;exitDy=0;entryX=1;entryY=0.5;entryDx=0;entryDy=0;" edge="1" parent="1" source="tYCs_D2PuRrYNjhiUNpw-49" target="tYCs_D2PuRrYNjhiUNpw-66">
          <mxGeometry relative="1" as="geometry" />
        </mxCell>
        <mxCell id="tYCs_D2PuRrYNjhiUNpw-77" style="edgeStyle=orthogonalEdgeStyle;rounded=0;orthogonalLoop=1;jettySize=auto;html=1;exitX=0;exitY=0.5;exitDx=0;exitDy=0;entryX=0.872;entryY=0.522;entryDx=0;entryDy=0;entryPerimeter=0;" edge="1" parent="1" source="tYCs_D2PuRrYNjhiUNpw-58" target="tYCs_D2PuRrYNjhiUNpw-68">
          <mxGeometry relative="1" as="geometry" />
        </mxCell>
        <mxCell id="tYCs_D2PuRrYNjhiUNpw-78" value="Client (recipient)" style="swimlane;fontStyle=0;childLayout=stackLayout;horizontal=1;startSize=30;horizontalStack=0;resizeParent=1;resizeParentMax=0;resizeLast=0;collapsible=1;marginBottom=0;" vertex="1" parent="1">
          <mxGeometry x="570" y="-420" width="140" height="90" as="geometry">
            <mxRectangle x="600" y="-350" width="130" height="30" as="alternateBounds" />
          </mxGeometry>
        </mxCell>
        <mxCell id="tYCs_D2PuRrYNjhiUNpw-79" value="Email" style="text;strokeColor=none;fillColor=none;align=left;verticalAlign=middle;spacingLeft=4;spacingRight=4;overflow=hidden;points=[[0,0.5],[1,0.5]];portConstraint=eastwest;rotatable=0;" vertex="1" parent="tYCs_D2PuRrYNjhiUNpw-78">
          <mxGeometry y="30" width="140" height="30" as="geometry" />
        </mxCell>
        <mxCell id="tYCs_D2PuRrYNjhiUNpw-80" value="Name" style="text;strokeColor=none;fillColor=none;align=left;verticalAlign=middle;spacingLeft=4;spacingRight=4;overflow=hidden;points=[[0,0.5],[1,0.5]];portConstraint=eastwest;rotatable=0;" vertex="1" parent="tYCs_D2PuRrYNjhiUNpw-78">
          <mxGeometry y="60" width="140" height="30" as="geometry" />
        </mxCell>
        <mxCell id="tYCs_D2PuRrYNjhiUNpw-82" style="edgeStyle=orthogonalEdgeStyle;rounded=0;orthogonalLoop=1;jettySize=auto;html=1;exitX=0;exitY=0.5;exitDx=0;exitDy=0;" edge="1" parent="1" source="tYCs_D2PuRrYNjhiUNpw-80" target="tYCs_D2PuRrYNjhiUNpw-69">
          <mxGeometry relative="1" as="geometry" />
        </mxCell>
        <mxCell id="tYCs_D2PuRrYNjhiUNpw-83" value="Schedule Sending" style="shape=parallelogram;html=1;strokeWidth=2;perimeter=parallelogramPerimeter;whiteSpace=wrap;rounded=1;arcSize=12;size=0.23;fillColor=#f5f5f5;strokeColor=#666666;fontColor=#333333;" vertex="1" parent="1">
          <mxGeometry x="300" y="-250" width="145" height="50" as="geometry" />
        </mxCell>
        <mxCell id="tYCs_D2PuRrYNjhiUNpw-84" value="Schedule" style="swimlane;fontStyle=0;childLayout=stackLayout;horizontal=1;startSize=30;horizontalStack=0;resizeParent=1;resizeParentMax=0;resizeLast=0;collapsible=1;marginBottom=0;" vertex="1" parent="1">
          <mxGeometry x="570" y="-300" width="140" height="120" as="geometry">
            <mxRectangle x="600" y="-350" width="130" height="30" as="alternateBounds" />
          </mxGeometry>
        </mxCell>
        <mxCell id="tYCs_D2PuRrYNjhiUNpw-85" value="Report + FC Account" style="text;strokeColor=none;fillColor=none;align=left;verticalAlign=middle;spacingLeft=4;spacingRight=4;overflow=hidden;points=[[0,0.5],[1,0.5]];portConstraint=eastwest;rotatable=0;" vertex="1" parent="tYCs_D2PuRrYNjhiUNpw-84">
          <mxGeometry y="30" width="140" height="30" as="geometry" />
        </mxCell>
        <mxCell id="tYCs_D2PuRrYNjhiUNpw-86" value="Partner + Client" style="text;strokeColor=none;fillColor=none;align=left;verticalAlign=middle;spacingLeft=4;spacingRight=4;overflow=hidden;points=[[0,0.5],[1,0.5]];portConstraint=eastwest;rotatable=0;" vertex="1" parent="tYCs_D2PuRrYNjhiUNpw-84">
          <mxGeometry y="60" width="140" height="30" as="geometry" />
        </mxCell>
        <mxCell id="tYCs_D2PuRrYNjhiUNpw-87" value="Sending days" style="text;strokeColor=none;fillColor=none;align=left;verticalAlign=middle;spacingLeft=4;spacingRight=4;overflow=hidden;points=[[0,0.5],[1,0.5]];portConstraint=eastwest;rotatable=0;" vertex="1" parent="tYCs_D2PuRrYNjhiUNpw-84">
          <mxGeometry y="90" width="140" height="30" as="geometry" />
        </mxCell>
        <mxCell id="tYCs_D2PuRrYNjhiUNpw-88" style="edgeStyle=orthogonalEdgeStyle;rounded=0;orthogonalLoop=1;jettySize=auto;html=1;exitX=0;exitY=0.5;exitDx=0;exitDy=0;entryX=1;entryY=0.5;entryDx=0;entryDy=0;" edge="1" parent="1" source="tYCs_D2PuRrYNjhiUNpw-86" target="tYCs_D2PuRrYNjhiUNpw-83">
          <mxGeometry relative="1" as="geometry" />
        </mxCell>
        <mxCell id="tYCs_D2PuRrYNjhiUNpw-91" value="One FC account has one map" style="text;html=1;strokeColor=none;fillColor=none;align=center;verticalAlign=middle;whiteSpace=wrap;rounded=0;" vertex="1" parent="1">
          <mxGeometry x="270" y="-860" width="100" height="30" as="geometry" />
        </mxCell>
        <mxCell id="tYCs_D2PuRrYNjhiUNpw-92" value="each report version can be used for multiple FC account" style="text;html=1;strokeColor=none;fillColor=none;align=center;verticalAlign=middle;whiteSpace=wrap;rounded=0;" vertex="1" parent="1">
          <mxGeometry x="240" y="-720" width="130" height="30" as="geometry" />
        </mxCell>
        <mxCell id="tYCs_D2PuRrYNjhiUNpw-93" value="each partner can be used for multiple reports" style="text;html=1;strokeColor=none;fillColor=none;align=center;verticalAlign=middle;whiteSpace=wrap;rounded=0;" vertex="1" parent="1">
          <mxGeometry x="240" y="-551" width="130" height="30" as="geometry" />
        </mxCell>
        <mxCell id="tYCs_D2PuRrYNjhiUNpw-94" value="multiple clients can obtain the same report" style="text;html=1;strokeColor=none;fillColor=none;align=center;verticalAlign=middle;whiteSpace=wrap;rounded=0;" vertex="1" parent="1">
          <mxGeometry x="230" y="-410" width="130" height="30" as="geometry" />
        </mxCell>
        <mxCell id="tYCs_D2PuRrYNjhiUNpw-95" value="you can start, stop, schedule or change sending" style="text;html=1;strokeColor=none;fillColor=none;align=center;verticalAlign=middle;whiteSpace=wrap;rounded=0;" vertex="1" parent="1">
          <mxGeometry x="230" y="-280" width="130" height="30" as="geometry" />
        </mxCell>
      </root>
    </mxGraphModel>
  </diagram>
</mxfile>
